<svg xmlns="http://www.w3.org/2000/svg" width="1500" height="2755" viewBox="0 0 1500 2755">
  <style>
    .guide { fill: none; stroke-width: 3; }
    .body { stroke: #22c55e; }
    .glass { stroke: #38bdf8; }
    .cutout { stroke: #f43f5e; stroke-dasharray: 18 12; }
    .screen { stroke: #a855f7; }
    .button { fill: #f59e0b; fill-opacity: 0.35; }
    .overflow { fill: none; stroke: #f59e0b; stroke-width: 2; stroke-dasharray: 10 10; stroke-opacity: .5; }
    .tag { fill: #94a3b8; font: 26px sans-serif; }
    .note { fill: #64748b; font: 30px sans-serif; }
  </style>
  <rect width="100%" height="100%" fill="#0b1020"/>
  <rect x="250" y="250" width="1000" height="2255" class="overflow"/>
  <path class="guide body" d="M 250.00,411.08 L 250.02,383.52 L 250.09,372.75 L 250.21,364.59 L 250.37,357.78 L 250.58,351.83 L 250.83,346.49 L 251.13,341.62 L 251.48,337.11 L 251.88,332.91 L 252.32,328.96 L 252.81,325.23 L 253.34,321.70 L 253.92,318.34 L 254.55,315.13 L 255.23,312.07 L 255.96,309.13 L 256.74,306.31 L 257.56,303.60 L 258.43,301.00 L 259.36,298.49 L 260.33,296.07 L 261.35,293.74 L 262.43,291.49 L 263.55,289.32 L 264.73,287.23 L 265.96,285.21 L 267.25,283.26 L 268.59,281.38 L 269.98,279.57 L 271.43,277.82 L 272.94,276.13 L 274.51,274.51 L 276.13,272.94 L 277.82,271.43 L 279.57,269.98 L 281.38,268.59 L 283.26,267.25 L 285.21,265.96 L 287.23,264.73 L 289.32,263.55 L 291.49,262.43 L 293.74,261.35 L 296.07,260.33 L 298.49,259.36 L 301.00,258.43 L 303.60,257.56 L 306.31,256.74 L 309.13,255.96 L 312.07,255.23 L 315.13,254.55 L 318.34,253.92 L 321.70,253.34 L 325.23,252.81 L 328.96,252.32 L 332.91,251.88 L 337.11,251.48 L 341.62,251.13 L 346.49,250.83 L 351.83,250.58 L 357.78,250.37 L 364.59,250.21 L 372.75,250.09 L 383.52,250.02 L 411.08,250.00 L 1088.92,250.00 L 1116.48,250.02 L 1127.25,250.09 L 1135.41,250.21 L 1142.22,250.37 L 1148.17,250.58 L 1153.51,250.83 L 1158.38,251.13 L 1162.89,251.48 L 1167.09,251.88 L 1171.04,252.32 L 1174.77,252.81 L 1178.30,253.34 L 1181.66,253.92 L 1184.87,254.55 L 1187.93,255.23 L 1190.87,255.96 L 1193.69,256.74 L 1196.40,257.56 L 1199.00,258.43 L 1201.51,259.36 L 1203.93,260.33 L 1206.26,261.35 L 1208.51,262.43 L 1210.68,263.55 L 1212.77,264.73 L 1214.79,265.96 L 1216.74,267.25 L 1218.62,268.59 L 1220.43,269.98 L 1222.18,271.43 L 1223.87,272.94 L 1225.49,274.51 L 1227.06,276.13 L 1228.57,277.82 L 1230.02,279.57 L 1231.41,281.38 L 1232.75,283.26 L 1234.04,285.21 L 1235.27,287.23 L 1236.45,289.32 L 1237.57,291.49 L 1238.65,293.74 L 1239.67,296.07 L 1240.64,298.49 L 1241.57,301.00 L 1242.44,303.60 L 1243.26,306.31 L 1244.04,309.13 L 1244.77,312.07 L 1245.45,315.13 L 1246.08,318.34 L 1246.66,321.70 L 1247.19,325.23 L 1247.68,328.96 L 1248.12,332.91 L 1248.52,337.11 L 1248.87,341.62 L 1249.17,346.49 L 1249.42,351.83 L 1249.63,357.78 L 1249.79,364.59 L 1249.91,372.75 L 1249.98,383.52 L 1250.00,411.08 L 1250.00,2343.92 L 1249.98,2371.48 L 1249.91,2382.25 L 1249.79,2390.41 L 1249.63,2397.22 L 1249.42,2403.17 L 1249.17,2408.51 L 1248.87,2413.38 L 1248.52,2417.89 L 1248.12,2422.09 L 1247.68,2426.04 L 1247.19,2429.77 L 1246.66,2433.30 L 1246.08,2436.66 L 1245.45,2439.87 L 1244.77,2442.93 L 1244.04,2445.87 L 1243.26,2448.69 L 1242.44,2451.40 L 1241.57,2454.00 L 1240.64,2456.51 L 1239.67,2458.93 L 1238.65,2461.26 L 1237.57,2463.51 L 1236.45,2465.68 L 1235.27,2467.77 L 1234.04,2469.79 L 1232.75,2471.74 L 1231.41,2473.62 L 1230.02,2475.43 L 1228.57,2477.18 L 1227.06,2478.87 L 1225.49,2480.49 L 1223.87,2482.06 L 1222.18,2483.57 L 1220.43,2485.02 L 1218.62,2486.41 L 1216.74,2487.75 L 1214.79,2489.04 L 1212.77,2490.27 L 1210.68,2491.45 L 1208.51,2492.57 L 1206.26,2493.65 L 1203.93,2494.67 L 1201.51,2495.64 L 1199.00,2496.57 L 1196.40,2497.44 L 1193.69,2498.26 L 1190.87,2499.04 L 1187.93,2499.77 L 1184.87,2500.45 L 1181.66,2501.08 L 1178.30,2501.66 L 1174.77,2502.19 L 1171.04,2502.68 L 1167.09,2503.12 L 1162.89,2503.52 L 1158.38,2503.87 L 1153.51,2504.17 L 1148.17,2504.42 L 1142.22,2504.63 L 1135.41,2504.79 L 1127.25,2504.91 L 1116.48,2504.98 L 1088.92,2505.00 L 411.08,2505.00 L 383.52,2504.98 L 372.75,2504.91 L 364.59,2504.79 L 357.78,2504.63 L 351.83,2504.42 L 346.49,2504.17 L 341.62,2503.87 L 337.11,2503.52 L 332.91,2503.12 L 328.96,2502.68 L 325.23,2502.19 L 321.70,2501.66 L 318.34,2501.08 L 315.13,2500.45 L 312.07,2499.77 L 309.13,2499.04 L 306.31,2498.26 L 303.60,2497.44 L 301.00,2496.57 L 298.49,2495.64 L 296.07,2494.67 L 293.74,2493.65 L 291.49,2492.57 L 289.32,2491.45 L 287.23,2490.27 L 285.21,2489.04 L 283.26,2487.75 L 281.38,2486.41 L 279.57,2485.02 L 277.82,2483.57 L 276.13,2482.06 L 274.51,2480.49 L 272.94,2478.87 L 271.43,2477.18 L 269.98,2475.43 L 268.59,2473.62 L 267.25,2471.74 L 265.96,2469.79 L 264.73,2467.77 L 263.55,2465.68 L 262.43,2463.51 L 261.35,2461.26 L 260.33,2458.93 L 259.36,2456.51 L 258.43,2454.00 L 257.56,2451.40 L 256.74,2448.69 L 255.96,2445.87 L 255.23,2442.93 L 254.55,2439.87 L 253.92,2436.66 L 253.34,2433.30 L 252.81,2429.77 L 252.32,2426.04 L 251.88,2422.09 L 251.48,2417.89 L 251.13,2413.38 L 250.83,2408.51 L 250.58,2403.17 L 250.37,2397.22 L 250.21,2390.41 L 250.09,2382.25 L 250.02,2371.48 L 250.00,2343.92 Z"/>
  <path class="guide glass" d="M 287.98,411.08 L 288.00,390.02 L 288.05,381.78 L 288.14,375.55 L 288.26,370.35 L 288.42,365.80 L 288.62,361.72 L 288.85,358.00 L 289.11,354.55 L 289.41,351.34 L 289.75,348.32 L 290.13,345.48 L 290.53,342.78 L 290.98,340.21 L 291.46,337.76 L 291.98,335.41 L 292.54,333.17 L 293.13,331.01 L 293.76,328.94 L 294.43,326.95 L 295.13,325.04 L 295.87,323.19 L 296.66,321.41 L 297.48,319.69 L 298.34,318.03 L 299.24,316.43 L 300.18,314.89 L 301.16,313.40 L 302.19,311.97 L 303.25,310.58 L 304.36,309.24 L 305.51,307.95 L 306.71,306.71 L 307.95,305.51 L 309.24,304.36 L 310.58,303.25 L 311.97,302.19 L 313.40,301.16 L 314.89,300.18 L 316.43,299.24 L 318.03,298.34 L 319.69,297.48 L 321.41,296.66 L 323.19,295.87 L 325.04,295.13 L 326.95,294.43 L 328.94,293.76 L 331.01,293.13 L 333.17,292.54 L 335.41,291.98 L 337.76,291.46 L 340.21,290.98 L 342.78,290.53 L 345.48,290.13 L 348.32,289.75 L 351.34,289.41 L 354.55,289.11 L 358.00,288.85 L 361.72,288.62 L 365.80,288.42 L 370.35,288.26 L 375.55,288.14 L 381.78,288.05 L 390.02,288.00 L 411.08,287.98 L 1088.92,287.98 L 1109.98,288.00 L 1118.22,288.05 L 1124.45,288.14 L 1129.65,288.26 L 1134.20,288.42 L 1138.28,288.62 L 1142.00,288.85 L 1145.45,289.11 L 1148.66,289.41 L 1151.68,289.75 L 1154.52,290.13 L 1157.22,290.53 L 1159.79,290.98 L 1162.24,291.46 L 1164.59,291.98 L 1166.83,292.54 L 1168.99,293.13 L 1171.06,293.76 L 1173.05,294.43 L 1174.96,295.13 L 1176.81,295.87 L 1178.59,296.66 L 1180.31,297.48 L 1181.97,298.34 L 1183.57,299.24 L 1185.11,300.18 L 1186.60,301.16 L 1188.03,302.19 L 1189.42,303.25 L 1190.76,304.36 L 1192.05,305.51 L 1193.29,306.71 L 1194.49,307.95 L 1195.64,309.24 L 1196.75,310.58 L 1197.81,311.97 L 1198.84,313.40 L 1199.82,314.89 L 1200.76,316.43 L 1201.66,318.03 L 1202.52,319.69 L 1203.34,321.41 L 1204.13,323.19 L 1204.87,325.04 L 1205.57,326.95 L 1206.24,328.94 L 1206.87,331.01 L 1207.46,333.17 L 1208.02,335.41 L 1208.54,337.76 L 1209.02,340.21 L 1209.47,342.78 L 1209.87,345.48 L 1210.25,348.32 L 1210.59,351.34 L 1210.89,354.55 L 1211.15,358.00 L 1211.38,361.72 L 1211.58,365.80 L 1211.74,370.35 L 1211.86,375.55 L 1211.95,381.78 L 1212.00,390.02 L 1212.02,411.08 L 1212.02,2343.92 L 1212.00,2364.98 L 1211.95,2373.22 L 1211.86,2379.45 L 1211.74,2384.65 L 1211.58,2389.20 L 1211.38,2393.28 L 1211.15,2397.00 L 1210.89,2400.45 L 1210.59,2403.66 L 1210.25,2406.68 L 1209.87,2409.52 L 1209.47,2412.22 L 1209.02,2414.79 L 1208.54,2417.24 L 1208.02,2419.59 L 1207.46,2421.83 L 1206.87,2423.99 L 1206.24,2426.06 L 1205.57,2428.05 L 1204.87,2429.96 L 1204.13,2431.81 L 1203.34,2433.59 L 1202.52,2435.31 L 1201.66,2436.97 L 1200.76,2438.57 L 1199.82,2440.11 L 1198.84,2441.60 L 1197.81,2443.03 L 1196.75,2444.42 L 1195.64,2445.76 L 1194.49,2447.05 L 1193.29,2448.29 L 1192.05,2449.49 L 1190.76,2450.64 L 1189.42,2451.75 L 1188.03,2452.81 L 1186.60,2453.84 L 1185.11,2454.82 L 1183.57,2455.76 L 1181.97,2456.66 L 1180.31,2457.52 L 1178.59,2458.34 L 1176.81,2459.13 L 1174.96,2459.87 L 1173.05,2460.57 L 1171.06,2461.24 L 1168.99,2461.87 L 1166.83,2462.46 L 1164.59,2463.02 L 1162.24,2463.54 L 1159.79,2464.02 L 1157.22,2464.47 L 1154.52,2464.87 L 1151.68,2465.25 L 1148.66,2465.59 L 1145.45,2465.89 L 1142.00,2466.15 L 1138.28,2466.38 L 1134.20,2466.58 L 1129.65,2466.74 L 1124.45,2466.86 L 1118.22,2466.95 L 1109.98,2467.00 L 1088.92,2467.02 L 411.08,2467.02 L 390.02,2467.00 L 381.78,2466.95 L 375.55,2466.86 L 370.35,2466.74 L 365.80,2466.58 L 361.72,2466.38 L 358.00,2466.15 L 354.55,2465.89 L 351.34,2465.59 L 348.32,2465.25 L 345.48,2464.87 L 342.78,2464.47 L 340.21,2464.02 L 337.76,2463.54 L 335.41,2463.02 L 333.17,2462.46 L 331.01,2461.87 L 328.94,2461.24 L 326.95,2460.57 L 325.04,2459.87 L 323.19,2459.13 L 321.41,2458.34 L 319.69,2457.52 L 318.03,2456.66 L 316.43,2455.76 L 314.89,2454.82 L 313.40,2453.84 L 311.97,2452.81 L 310.58,2451.75 L 309.24,2450.64 L 307.95,2449.49 L 306.71,2448.29 L 305.51,2447.05 L 304.36,2445.76 L 303.25,2444.42 L 302.19,2443.03 L 301.16,2441.60 L 300.18,2440.11 L 299.24,2438.57 L 298.34,2436.97 L 297.48,2435.31 L 296.66,2433.59 L 295.87,2431.81 L 295.13,2429.96 L 294.43,2428.05 L 293.76,2426.06 L 293.13,2423.99 L 292.54,2421.83 L 291.98,2419.59 L 291.46,2417.24 L 290.98,2414.79 L 290.53,2412.22 L 290.13,2409.52 L 289.75,2406.68 L 289.41,2403.66 L 289.11,2400.45 L 288.85,2397.00 L 288.62,2393.28 L 288.42,2389.20 L 288.26,2384.65 L 288.14,2379.45 L 288.05,2373.22 L 288.00,2364.98 L 287.98,2343.92 Z"/>
  <path class="guide cutout" d="M 297.98,411.08 L 298.00,391.73 L 298.05,384.16 L 298.13,378.44 L 298.24,373.66 L 298.39,369.48 L 298.57,365.73 L 298.78,362.31 L 299.02,359.14 L 299.30,356.19 L 299.61,353.42 L 299.95,350.80 L 300.33,348.32 L 300.74,345.96 L 301.18,343.71 L 301.66,341.56 L 302.17,339.50 L 302.71,337.52 L 303.29,335.62 L 303.90,333.79 L 304.55,332.03 L 305.23,330.33 L 305.95,328.69 L 306.71,327.11 L 307.50,325.59 L 308.32,324.12 L 309.19,322.71 L 310.09,321.34 L 311.03,320.02 L 312.01,318.74 L 313.03,317.51 L 314.09,316.33 L 315.19,315.19 L 316.33,314.09 L 317.51,313.03 L 318.74,312.01 L 320.02,311.03 L 321.34,310.09 L 322.71,309.19 L 324.12,308.32 L 325.59,307.50 L 327.11,306.71 L 328.69,305.95 L 330.33,305.23 L 332.03,304.55 L 333.79,303.90 L 335.62,303.29 L 337.52,302.71 L 339.50,302.17 L 341.56,301.66 L 343.71,301.18 L 345.96,300.74 L 348.32,300.33 L 350.80,299.95 L 353.42,299.61 L 356.19,299.30 L 359.14,299.02 L 362.31,298.78 L 365.73,298.57 L 369.48,298.39 L 373.66,298.24 L 378.44,298.13 L 384.16,298.05 L 391.73,298.00 L 411.08,297.98 L 1088.92,297.98 L 1108.27,298.00 L 1115.84,298.05 L 1121.56,298.13 L 1126.34,298.24 L 1130.52,298.39 L 1134.27,298.57 L 1137.69,298.78 L 1140.86,299.02 L 1143.81,299.30 L 1146.58,299.61 L 1149.20,299.95 L 1151.68,300.33 L 1154.04,300.74 L 1156.29,301.18 L 1158.44,301.66 L 1160.50,302.17 L 1162.48,302.71 L 1164.38,303.29 L 1166.21,303.90 L 1167.97,304.55 L 1169.67,305.23 L 1171.31,305.95 L 1172.89,306.71 L 1174.41,307.50 L 1175.88,308.32 L 1177.29,309.19 L 1178.66,310.09 L 1179.98,311.03 L 1181.26,312.01 L 1182.49,313.03 L 1183.67,314.09 L 1184.81,315.19 L 1185.91,316.33 L 1186.97,317.51 L 1187.99,318.74 L 1188.97,320.02 L 1189.91,321.34 L 1190.81,322.71 L 1191.68,324.12 L 1192.50,325.59 L 1193.29,327.11 L 1194.05,328.69 L 1194.77,330.33 L 1195.45,332.03 L 1196.10,333.79 L 1196.71,335.62 L 1197.29,337.52 L 1197.83,339.50 L 1198.34,341.56 L 1198.82,343.71 L 1199.26,345.96 L 1199.67,348.32 L 1200.05,350.80 L 1200.39,353.42 L 1200.70,356.19 L 1200.98,359.14 L 1201.22,362.31 L 1201.43,365.73 L 1201.61,369.48 L 1201.76,373.66 L 1201.87,378.44 L 1201.95,384.16 L 1202.00,391.73 L 1202.02,411.08 L 1202.02,2343.92 L 1202.00,2363.27 L 1201.95,2370.84 L 1201.87,2376.56 L 1201.76,2381.34 L 1201.61,2385.52 L 1201.43,2389.27 L 1201.22,2392.69 L 1200.98,2395.86 L 1200.70,2398.81 L 1200.39,2401.58 L 1200.05,2404.20 L 1199.67,2406.68 L 1199.26,2409.04 L 1198.82,2411.29 L 1198.34,2413.44 L 1197.83,2415.50 L 1197.29,2417.48 L 1196.71,2419.38 L 1196.10,2421.21 L 1195.45,2422.97 L 1194.77,2424.67 L 1194.05,2426.31 L 1193.29,2427.89 L 1192.50,2429.41 L 1191.68,2430.88 L 1190.81,2432.29 L 1189.91,2433.66 L 1188.97,2434.98 L 1187.99,2436.26 L 1186.97,2437.49 L 1185.91,2438.67 L 1184.81,2439.81 L 1183.67,2440.91 L 1182.49,2441.97 L 1181.26,2442.99 L 1179.98,2443.97 L 1178.66,2444.91 L 1177.29,2445.81 L 1175.88,2446.68 L 1174.41,2447.50 L 1172.89,2448.29 L 1171.31,2449.05 L 1169.67,2449.77 L 1167.97,2450.45 L 1166.21,2451.10 L 1164.38,2451.71 L 1162.48,2452.29 L 1160.50,2452.83 L 1158.44,2453.34 L 1156.29,2453.82 L 1154.04,2454.26 L 1151.68,2454.67 L 1149.20,2455.05 L 1146.58,2455.39 L 1143.81,2455.70 L 1140.86,2455.98 L 1137.69,2456.22 L 1134.27,2456.43 L 1130.52,2456.61 L 1126.34,2456.76 L 1121.56,2456.87 L 1115.84,2456.95 L 1108.27,2457.00 L 1088.92,2457.02 L 411.08,2457.02 L 391.73,2457.00 L 384.16,2456.95 L 378.44,2456.87 L 373.66,2456.76 L 369.48,2456.61 L 365.73,2456.43 L 362.31,2456.22 L 359.14,2455.98 L 356.19,2455.70 L 353.42,2455.39 L 350.80,2455.05 L 348.32,2454.67 L 345.96,2454.26 L 343.71,2453.82 L 341.56,2453.34 L 339.50,2452.83 L 337.52,2452.29 L 335.62,2451.71 L 333.79,2451.10 L 332.03,2450.45 L 330.33,2449.77 L 328.69,2449.05 L 327.11,2448.29 L 325.59,2447.50 L 324.12,2446.68 L 322.71,2445.81 L 321.34,2444.91 L 320.02,2443.97 L 318.74,2442.99 L 317.51,2441.97 L 316.33,2440.91 L 315.19,2439.81 L 314.09,2438.67 L 313.03,2437.49 L 312.01,2436.26 L 311.03,2434.98 L 310.09,2433.66 L 309.19,2432.29 L 308.32,2430.88 L 307.50,2429.41 L 306.71,2427.89 L 305.95,2426.31 L 305.23,2424.67 L 304.55,2422.97 L 303.90,2421.21 L 303.29,2419.38 L 302.71,2417.48 L 302.17,2415.50 L 301.66,2413.44 L 301.18,2411.29 L 300.74,2409.04 L 300.33,2406.68 L 299.95,2404.20 L 299.61,2401.58 L 299.30,2398.81 L 299.02,2395.86 L 298.78,2392.69 L 298.57,2389.27 L 298.39,2385.52 L 298.24,2381.34 L 298.13,2376.56 L 298.05,2370.84 L 298.00,2363.27 L 297.98,2343.92 Z"/>
  <path class="guide screen" d="M 304.11,411.08 L 304.13,392.78 L 304.17,385.62 L 304.25,380.21 L 304.36,375.69 L 304.49,371.74 L 304.66,368.19 L 304.86,364.95 L 305.09,361.96 L 305.36,359.17 L 305.65,356.55 L 305.97,354.07 L 306.33,351.73 L 306.72,349.49 L 307.13,347.36 L 307.59,345.33 L 308.07,343.38 L 308.58,341.51 L 309.13,339.71 L 309.71,337.98 L 310.32,336.31 L 310.97,334.71 L 311.65,333.16 L 312.36,331.67 L 313.11,330.23 L 313.89,328.84 L 314.71,327.50 L 315.56,326.20 L 316.45,324.95 L 317.38,323.75 L 318.34,322.59 L 319.34,321.46 L 320.38,320.38 L 321.46,319.34 L 322.59,318.34 L 323.75,317.38 L 324.95,316.45 L 326.20,315.56 L 327.50,314.71 L 328.84,313.89 L 330.23,313.11 L 331.67,312.36 L 333.16,311.65 L 334.71,310.97 L 336.31,310.32 L 337.98,309.71 L 339.71,309.13 L 341.51,308.58 L 343.38,308.07 L 345.33,307.59 L 347.36,307.13 L 349.49,306.72 L 351.73,306.33 L 354.07,305.97 L 356.55,305.65 L 359.17,305.36 L 361.96,305.09 L 364.95,304.86 L 368.19,304.66 L 371.74,304.49 L 375.69,304.36 L 380.21,304.25 L 385.62,304.17 L 392.78,304.13 L 411.08,304.11 L 1088.92,304.11 L 1107.22,304.13 L 1114.38,304.17 L 1119.79,304.25 L 1124.31,304.36 L 1128.26,304.49 L 1131.81,304.66 L 1135.05,304.86 L 1138.04,305.09 L 1140.83,305.36 L 1143.45,305.65 L 1145.93,305.97 L 1148.27,306.33 L 1150.51,306.72 L 1152.64,307.13 L 1154.67,307.59 L 1156.62,308.07 L 1158.49,308.58 L 1160.29,309.13 L 1162.02,309.71 L 1163.69,310.32 L 1165.29,310.97 L 1166.84,311.65 L 1168.33,312.36 L 1169.77,313.11 L 1171.16,313.89 L 1172.50,314.71 L 1173.80,315.56 L 1175.05,316.45 L 1176.25,317.38 L 1177.41,318.34 L 1178.54,319.34 L 1179.62,320.38 L 1180.66,321.46 L 1181.66,322.59 L 1182.62,323.75 L 1183.55,324.95 L 1184.44,326.20 L 1185.29,327.50 L 1186.11,328.84 L 1186.89,330.23 L 1187.64,331.67 L 1188.35,333.16 L 1189.03,334.71 L 1189.68,336.31 L 1190.29,337.98 L 1190.87,339.71 L 1191.42,341.51 L 1191.93,343.38 L 1192.41,345.33 L 1192.87,347.36 L 1193.28,349.49 L 1193.67,351.73 L 1194.03,354.07 L 1194.35,356.55 L 1194.64,359.17 L 1194.91,361.96 L 1195.14,364.95 L 1195.34,368.19 L 1195.51,371.74 L 1195.64,375.69 L 1195.75,380.21 L 1195.83,385.62 L 1195.87,392.78 L 1195.89,411.08 L 1195.89,2343.92 L 1195.87,2362.22 L 1195.83,2369.38 L 1195.75,2374.79 L 1195.64,2379.31 L 1195.51,2383.26 L 1195.34,2386.81 L 1195.14,2390.05 L 1194.91,2393.04 L 1194.64,2395.83 L 1194.35,2398.45 L 1194.03,2400.93 L 1193.67,2403.27 L 1193.28,2405.51 L 1192.87,2407.64 L 1192.41,2409.67 L 1191.93,2411.62 L 1191.42,2413.49 L 1190.87,2415.29 L 1190.29,2417.02 L 1189.68,2418.69 L 1189.03,2420.29 L 1188.35,2421.84 L 1187.64,2423.33 L 1186.89,2424.77 L 1186.11,2426.16 L 1185.29,2427.50 L 1184.44,2428.80 L 1183.55,2430.05 L 1182.62,2431.25 L 1181.66,2432.41 L 1180.66,2433.54 L 1179.62,2434.62 L 1178.54,2435.66 L 1177.41,2436.66 L 1176.25,2437.62 L 1175.05,2438.55 L 1173.80,2439.44 L 1172.50,2440.29 L 1171.16,2441.11 L 1169.77,2441.89 L 1168.33,2442.64 L 1166.84,2443.35 L 1165.29,2444.03 L 1163.69,2444.68 L 1162.02,2445.29 L 1160.29,2445.87 L 1158.49,2446.42 L 1156.62,2446.93 L 1154.67,2447.41 L 1152.64,2447.87 L 1150.51,2448.28 L 1148.27,2448.67 L 1145.93,2449.03 L 1143.45,2449.35 L 1140.83,2449.64 L 1138.04,2449.91 L 1135.05,2450.14 L 1131.81,2450.34 L 1128.26,2450.51 L 1124.31,2450.64 L 1119.79,2450.75 L 1114.38,2450.83 L 1107.22,2450.87 L 1088.92,2450.89 L 411.08,2450.89 L 392.78,2450.87 L 385.62,2450.83 L 380.21,2450.75 L 375.69,2450.64 L 371.74,2450.51 L 368.19,2450.34 L 364.95,2450.14 L 361.96,2449.91 L 359.17,2449.64 L 356.55,2449.35 L 354.07,2449.03 L 351.73,2448.67 L 349.49,2448.28 L 347.36,2447.87 L 345.33,2447.41 L 343.38,2446.93 L 341.51,2446.42 L 339.71,2445.87 L 337.98,2445.29 L 336.31,2444.68 L 334.71,2444.03 L 333.16,2443.35 L 331.67,2442.64 L 330.23,2441.89 L 328.84,2441.11 L 327.50,2440.29 L 326.20,2439.44 L 324.95,2438.55 L 323.75,2437.62 L 322.59,2436.66 L 321.46,2435.66 L 320.38,2434.62 L 319.34,2433.54 L 318.34,2432.41 L 317.38,2431.25 L 316.45,2430.05 L 315.56,2428.80 L 314.71,2427.50 L 313.89,2426.16 L 313.11,2424.77 L 312.36,2423.33 L 311.65,2421.84 L 310.97,2420.29 L 310.32,2418.69 L 309.71,2417.02 L 309.13,2415.29 L 308.58,2413.49 L 308.07,2411.62 L 307.59,2409.67 L 307.13,2407.64 L 306.72,2405.51 L 306.33,2403.27 L 305.97,2400.93 L 305.65,2398.45 L 305.36,2395.83 L 305.09,2393.04 L 304.86,2390.05 L 304.66,2386.81 L 304.49,2383.26 L 304.36,2379.31 L 304.25,2374.79 L 304.17,2369.38 L 304.13,2362.22 L 304.11,2343.92 Z"/>
  <rect x='229.7' y='712.3' width='24.5' height='184.9' class='button'/><text x='133.7' y='804.7' class='tag'>mute</text>
  <rect x='1245.8' y='813.8' width='24.5' height='243.5' class='button'/><text x='1282.3' y='935.5' class='tag'>side</text>
  <rect x='229.7' y='960.3' width='24.5' height='184.9' class='button'/><text x='133.7' y='1052.8' class='tag'>lock</text>
  <text x="40" y="70" class="note">PAINT BETWEEN GREEN AND RED, AND ANYWHERE OUTSIDE GREEN</text>
  <text x="40" y="118" class="note">green silhouette / blue glass edge / red alpha cutout / purple screen</text>
  <text x="40" y="166" class="note">the 250 px margin outside green is free: charms, ears, straps, figures</text>
</svg>
